<?xml version="1.0" encoding="UTF-8" standalone="no"?>
<!-- Created with Inkscape (http://www.inkscape.org/) -->

<svg
   width="208.91521mm"
   height="228.87054mm"
   viewBox="0 0 208.91521 228.87054"
   version="1.1"
   id="svg1"
   xml:space="preserve"
   inkscape:export-filename="Vitejs-logo.svg"
   inkscape:export-xdpi="96"
   inkscape:export-ydpi="96"
   xmlns:inkscape="http://www.inkscape.org/namespaces/inkscape"
   xmlns:sodipodi="http://sodipodi.sourceforge.net/DTD/sodipodi-0.dtd"
   xmlns="http://www.w3.org/2000/svg"
   xmlns:svg="http://www.w3.org/2000/svg"><sodipodi:namedview
     id="namedview1"
     pagecolor="#505050"
     bordercolor="#ffffff"
     borderopacity="1"
     inkscape:showpageshadow="0"
     inkscape:pageopacity="0"
     inkscape:pagecheckerboard="1"
     inkscape:deskcolor="#505050"
     inkscape:document-units="mm" /><defs
     id="defs1"><rect
       x="281.10477"
       y="882.2511"
       width="307.69574"
       height="134.85431"
       id="rect2" /><linearGradient
       id="paint0_linear"
       x1="6.0001702"
       y1="32.999901"
       x2="235"
       y2="344"
       gradientUnits="userSpaceOnUse"
       gradientTransform="matrix(0.99999846,3.9234128e-4,2.8938395e-4,0.92634222,-0.01231381,3.1342709)"><stop
         stop-color="#41D1FF"
         id="stop2" /><stop
         offset="1"
         stop-color="#BD34FE"
         id="stop3" /></linearGradient><linearGradient
       id="paint1_linear"
       x1="194.651"
       y1="8.8181801"
       x2="236.076"
       y2="292.98901"
       gradientUnits="userSpaceOnUse"><stop
         stop-color="#FFEA83"
         id="stop4" /><stop
         offset="0.0833333"
         stop-color="#FFDD35"
         id="stop5" /><stop
         offset="1"
         stop-color="#FFA800"
         id="stop6" /></linearGradient></defs><g
     inkscape:label="Layer 1"
     inkscape:groupmode="layer"
     id="layer1"
     transform="translate(-0.94974884,-3.7353217)"><g
       inkscape:label="Layer 1"
       id="layer1-4"
       transform="translate(1.178972,56.601316)"><g
         style="fill:none"
         id="g1"
         transform="matrix(0.53336385,-0.00265515,0.00209546,0.49847564,-5.2739091,-6.8265839)"><path
           d="M 399.6453,58.431217 215.74279,363.14451 c -3.79703,6.29116 -13.557,6.32438 -17.41495,0.0608 L 10.586605,58.307938 C 6.3836492,51.482204 12.680387,43.218831 21.028706,44.604302 L 205.23285,75.175275 c 1.17506,0.194993 2.37806,0.193612 3.55299,-0.0043 L 389.11905,44.792442 c 8.31955,-1.401441 14.6511,6.802877 10.52625,13.638775 z"
           fill="url(#paint0_linear)"
           id="path1"
           style="fill:url(#paint0_linear);stroke-width:0.962466" /><path
           d="M 292.965,1.5744 156.801,28.2552 c -2.238,0.4385 -3.895,2.3351 -4.03,4.6112 L 144.395,174.33 c -0.197,3.332 2.863,5.918 6.115,5.168 l 37.91,-8.749 c 3.547,-0.818 6.752,2.306 6.023,5.873 l -11.263,55.153 c -0.758,3.712 2.727,6.886 6.352,5.785 l 23.415,-7.114 c 3.63,-1.102 7.118,2.081 6.35,5.796 l -17.899,86.633 c -1.12,5.419 6.088,8.374 9.094,3.728 L 212.5,323.5 323.454,102.072 c 1.858,-3.7075 -1.346,-7.935 -5.418,-7.1492 l -39.022,7.5312 c -3.667,0.707 -6.787,-2.708 -5.752,-6.2957 L 298.731,7.86689 c 1.036,-3.59375 -2.095,-7.011709 -5.766,-6.29249 z"
           fill="url(#paint1_linear)"
           id="path2"
           style="fill:url(#paint1_linear)" /></g><text
         xml:space="preserve"
         transform="matrix(0.46116629,0,0,0.5336653,-67.689402,-511.04896)"
         id="text1"
         style="font-style:normal;font-variant:normal;font-weight:normal;font-stretch:normal;font-size:96px;line-height:0.5;font-family:'Lucida Console';-inkscape-font-specification:'Lucida Console';font-variant-ligatures:normal;font-variant-caps:normal;font-variant-numeric:normal;font-variant-east-asian:normal;white-space:pre;shape-inside:url(#rect2);fill:#ffea83;stroke:#ffea83;stroke-width:3.77953;stroke-linecap:square;stroke-linejoin:round"><tspan
           x="281.10547"
           y="934.331"
           id="tspan1">Vite</tspan></text></g></g></svg>
