<?xml version="1.0" encoding="UTF-8" standalone="no"?>
<svg
   viewBox="0 0 192 192"
   height="50"
   width="50"
   fill="currentColor"
   stroke="currentColor"
   stroke-width="0"
   version="1.1"
   id="svg1"
   xmlns="http://www.w3.org/2000/svg"
   xmlns:svg="http://www.w3.org/2000/svg">
  <defs
     id="defs1" />
  <path
     d="M 176,0 H 16 A 16,16 0 0 0 0,16 v 160 a 16,16 0 0 0 16,16 h 160 a 16,16 0 0 0 16,-16 V 16 A 16,16 0 0 0 176,0 Z m -73.14,14.86 a 8,8 0 0 1 11.32,0 l 45.25,45.26 A 8,8 0 0 1 148.12,71.43 L 102.86,26.18 a 8,8 0 0 1 0,-11.32 z M 68.18,66.77 a 8,8 0 0 1 10.45,-4.33 l 59.13,24.49 a 8,8 0 0 1 -3.06,15.4 7.89,7.89 0 0 1 -3.06,-0.62 L 72.51,77.22 A 8,8 0 0 1 68.18,66.77 Z M 64,120 h 64 a 8,8 0 0 1 0,16 H 64 a 8,8 0 0 1 0,-16 z m 104,40 a 8,8 0 0 1 -8,8 H 32 a 8,8 0 0 1 -8,-8 v -48 a 8,8 0 0 1 16,0 v 40 h 112 v -40 a 8,8 0 0 1 16,0 z"
     id="path1"
     style="fill:#4f81bd;fill-opacity:1" />
</svg>
